# xmcd
#
# Track frame offsets: 
#        150
#        16757
#        33345
#        47135
#
# Disc length: 843 seconds
#
# Revision: 0
# Processed by: cddbd v1.5.2PL0 Copyright (c) Steve Scherf et al.
# Submitted via: ExactAudioCopy v0.95b3
#
DISCID=25034904
DTITLE=Jake Owen - Endless Summer
DYEAR=2012
DGENRE=Country
TTITLE0=Summer Jam
TTITLE1=Pass A Beer
TTITLE2=Steal My Kisses
TTITLE3=Surefire Feeling
EXTD=
EXTT0=
EXTT1=
EXTT2=
EXTT3=
PLAYORDER=
